<svg xmlns="http://www.w3.org/2000/svg" width="31" height="31" viewBox="0 0 31 31">
  <g id="编组_9" data-name="编组 9" transform="translate(0.5 0.5)">
    <g id="编组_13备份_2" data-name="编组 13备份 2">
      <circle id="椭圆形" cx="15" cy="15" r="15" fill="none" stroke="#fff" stroke-miterlimit="10" stroke-width="1"/>
    </g>
    <g id="_22" data-name="22" transform="translate(7 9)">
      <path id="形状" d="M1.6,12.444A1.533,1.533,0,0,1,0,10.993V3.007A1.534,1.534,0,0,1,1.6,1.555H3.2a2.376,2.376,0,0,0,1.137-.417L5.355.417A2.658,2.658,0,0,1,6.669,0H9.331a2.664,2.664,0,0,1,1.314.417l1.018.722a2.691,2.691,0,0,0,1.137.417h1.6A1.534,1.534,0,0,1,16,3.007v7.986a1.533,1.533,0,0,1-1.6,1.452ZM4.364,6.222A3.554,3.554,0,0,0,8,9.679a3.685,3.685,0,0,0,3.149-1.728,3.317,3.317,0,0,0,0-3.457A3.686,3.686,0,0,0,8,2.765,3.554,3.554,0,0,0,4.364,6.222Zm1.454,0A2.13,2.13,0,0,1,8,4.148a2.13,2.13,0,0,1,2.182,2.075A2.13,2.13,0,0,1,8,8.3,2.13,2.13,0,0,1,5.819,6.223Z" transform="translate(0 0)" fill="#fff"/>
    </g>
  </g>
</svg>
