<svg xmlns="http://www.w3.org/2000/svg" width="31" height="31" viewBox="0 0 31 31">
  <g id="编组_10" data-name="编组 10" transform="translate(0.5 0.5)">
    <g id="编组_13备份" data-name="编组 13备份">
      <circle id="椭圆形" cx="15" cy="15" r="15" fill="none" stroke="#fff" stroke-miterlimit="10" stroke-width="1"/>
    </g>
    <g id="编组_2" data-name="编组 2" transform="translate(7 10)">
      <path id="Fill_3" data-name="Fill 3" d="M.762,11h0A2.75,2.75,0,0,1,0,10.948s.006-.008.019-.011A2.855,2.855,0,0,0,1.763,8.7c.06-1.217,1.6-2.009,1.615-2.017l2.316,1.99a1.261,1.261,0,0,1-.276,1.081C4.429,10.94,1.366,11,.762,11ZM6.146,8.289a.737.737,0,0,1-.473-.2L4.087,6.682a.638.638,0,0,1-.228-.441.309.309,0,0,1,.093-.235.364.364,0,0,1,.259-.094.737.737,0,0,1,.473.2L6.269,7.519a.64.64,0,0,1,.228.44.312.312,0,0,1-.092.237A.366.366,0,0,1,6.146,8.289Zm.64-1.256A1.648,1.648,0,0,1,5.778,6.46C4.856,5.6,5,5.424,5.186,5.2,6.709,3.732,10.276.5,10.787.184l.036-.019A1.125,1.125,0,0,1,11.355,0a.766.766,0,0,1,.414.125.466.466,0,0,1,.221.319,1.235,1.235,0,0,1-.271.832c-1,1.335-3.781,4.943-4.427,5.543A.8.8,0,0,1,6.786,7.033Z" transform="translate(4.811)" fill="#fff"/>
      <path id="Fill_5" data-name="Fill 5" d="M.012.015A3.692,3.692,0,0,1,2.664,2.643c.255,1.419-.837,2.726-.047,3.851.174.247.417.456.378.5A2.446,2.446,0,0,1,1.473,5.826c-.489-.893.149-1.492.047-2.771C1.371,1.206-.152.156.012.015" transform="translate(0.811 3)" fill="#fff"/>
    </g>
  </g>
</svg>
