<svg xmlns="http://www.w3.org/2000/svg" width="14.476" height="15" viewBox="0 0 14.476 15">
  <g id="编组_5" data-name="编组 5" transform="translate(-0.594)">
    <g id="编组_4" data-name="编组 4" transform="translate(0.594)">
      <path id="bar1" d="M0,8.385V1A1,1,0,0,1,1,0h.895a1,1,0,0,1,1,1v9A9.364,9.364,0,0,1,0,8.385Z" transform="translate(0.966 4)" fill="#1d1d1d"/>
      <path id="bar2" d="M0,10.888V1A1,1,0,0,1,1,0h.895a1,1,0,0,1,1,1v9.888a9.425,9.425,0,0,1-2.894,0Z" transform="translate(5.79 4)" fill="#1d1d1d"/>
      <path id="bar3" d="M0,1A1,1,0,0,1,1,0h.895a1,1,0,0,1,1,1V8.385A9.368,9.368,0,0,1,0,10Z" transform="translate(10.616 4)" fill="#1d1d1d"/>
      <path id="line" d="M.471,4a.466.466,0,0,1-.41-.266.553.553,0,0,1,.179-.71L4.974.068A.423.423,0,0,1,5.338.022l5.8,1.882L13.755.08A.445.445,0,0,1,14.4.244a.555.555,0,0,1-.148.718L11.465,2.911a.439.439,0,0,1-.384.059L5.263,1.083.7,3.933A.442.442,0,0,1,.471,4" fill="#1d1d1d"/>
    </g>
  </g>
</svg>
